<svg width="640" height="840" viewBox="0 0 640 840" fill="none" xmlns="http://www.w3.org/2000/svg">
  <rect width="640" height="840" rx="36" fill="#D8B279"/>
  <rect x="46" y="46" width="548" height="748" rx="26" fill="#F7F0E4"/>
  <g opacity="0.95">
    <rect x="128" y="210" width="112" height="348" rx="18" fill="#9B5F3D"/>
    <rect x="144" y="228" width="80" height="310" rx="12" fill="#F7E6C9"/>
    <rect x="264" y="176" width="124" height="400" rx="18" fill="#6F7C61"/>
    <rect x="282" y="196" width="88" height="360" rx="12" fill="#EEF0E2"/>
    <rect x="410" y="238" width="104" height="320" rx="18" fill="#B56C47"/>
    <rect x="426" y="256" width="72" height="282" rx="12" fill="#FFF3DE"/>
  </g>
  <g opacity="0.45">
    <path d="M165 286H202" stroke="#9B5F3D" stroke-width="10" stroke-linecap="round"/>
    <path d="M165 322H210" stroke="#9B5F3D" stroke-width="10" stroke-linecap="round"/>
    <path d="M300 248H350" stroke="#6F7C61" stroke-width="10" stroke-linecap="round"/>
    <path d="M300 288H340" stroke="#6F7C61" stroke-width="10" stroke-linecap="round"/>
    <path d="M442 306H482" stroke="#B56C47" stroke-width="10" stroke-linecap="round"/>
    <path d="M442 342H474" stroke="#B56C47" stroke-width="10" stroke-linecap="round"/>
  </g>
  <circle cx="478" cy="164" r="46" fill="#E2C17B" fill-opacity="0.86"/>
  <circle cx="180" cy="612" r="28" fill="#C88658" fill-opacity="0.78"/>
</svg>
